<mxfile host="app.diagrams.net" agent="Mozilla/5.0 (Windows NT 10.0; Win64; x64; rv:136.0) Gecko/20100101 Firefox/136.0" version="26.1.0">
  <diagram name="Page-1" id="SkjP-rW-7nyKkkjzbMYa">
    <mxGraphModel dx="2307" dy="1902" grid="1" gridSize="10" guides="1" tooltips="1" connect="1" arrows="1" fold="1" page="1" pageScale="1" pageWidth="827" pageHeight="1169" math="0" shadow="0">
      <root>
        <mxCell id="0" />
        <mxCell id="1" parent="0" />
        <mxCell id="7-AQ3YgOqrzpZozeYhBY-88" value="" style="shape=folder;fontStyle=1;spacingTop=10;tabWidth=40;tabHeight=14;tabPosition=left;html=1;whiteSpace=wrap;" vertex="1" parent="1">
          <mxGeometry x="-430" y="80" width="270" height="160" as="geometry" />
        </mxCell>
        <mxCell id="7-AQ3YgOqrzpZozeYhBY-74" value="" style="shape=folder;fontStyle=1;spacingTop=10;tabWidth=40;tabHeight=14;tabPosition=left;html=1;whiteSpace=wrap;" vertex="1" parent="1">
          <mxGeometry x="-540" y="-580" width="480" height="550" as="geometry" />
        </mxCell>
        <mxCell id="7-AQ3YgOqrzpZozeYhBY-68" value="" style="shape=folder;fontStyle=1;spacingTop=10;tabWidth=40;tabHeight=14;tabPosition=left;html=1;whiteSpace=wrap;" vertex="1" parent="1">
          <mxGeometry x="60" y="-540" width="710" height="410" as="geometry" />
        </mxCell>
        <mxCell id="7-AQ3YgOqrzpZozeYhBY-40" value="" style="shape=folder;fontStyle=1;spacingTop=10;tabWidth=40;tabHeight=14;tabPosition=left;html=1;whiteSpace=wrap;" vertex="1" parent="1">
          <mxGeometry x="40" width="550" height="430" as="geometry" />
        </mxCell>
        <mxCell id="7-AQ3YgOqrzpZozeYhBY-1" value="Patient" style="swimlane;fontStyle=0;childLayout=stackLayout;horizontal=1;startSize=26;fillColor=none;horizontalStack=0;resizeParent=1;resizeParentMax=0;resizeLast=0;collapsible=1;marginBottom=0;whiteSpace=wrap;html=1;" vertex="1" parent="1">
          <mxGeometry x="80" y="40" width="140" height="160" as="geometry" />
        </mxCell>
        <mxCell id="7-AQ3YgOqrzpZozeYhBY-2" value="+ id: integer" style="text;strokeColor=none;fillColor=none;align=left;verticalAlign=top;spacingLeft=4;spacingRight=4;overflow=hidden;rotatable=0;points=[[0,0.5],[1,0.5]];portConstraint=eastwest;whiteSpace=wrap;html=1;" vertex="1" parent="7-AQ3YgOqrzpZozeYhBY-1">
          <mxGeometry y="26" width="140" height="26" as="geometry" />
        </mxCell>
        <mxCell id="7-AQ3YgOqrzpZozeYhBY-3" value="+ name: String" style="text;strokeColor=none;fillColor=none;align=left;verticalAlign=top;spacingLeft=4;spacingRight=4;overflow=hidden;rotatable=0;points=[[0,0.5],[1,0.5]];portConstraint=eastwest;whiteSpace=wrap;html=1;" vertex="1" parent="7-AQ3YgOqrzpZozeYhBY-1">
          <mxGeometry y="52" width="140" height="26" as="geometry" />
        </mxCell>
        <mxCell id="7-AQ3YgOqrzpZozeYhBY-4" value="&lt;div&gt;+ surname: String&lt;/div&gt;&lt;div&gt;+ dob: date&lt;/div&gt;&lt;div&gt;+ telephone: integer&lt;/div&gt;&lt;div&gt;+ credit_card:integer&lt;/div&gt;&lt;div&gt;+ email:String&lt;/div&gt;&lt;div&gt;&lt;br&gt;&lt;/div&gt;" style="text;strokeColor=none;fillColor=none;align=left;verticalAlign=top;spacingLeft=4;spacingRight=4;overflow=hidden;rotatable=0;points=[[0,0.5],[1,0.5]];portConstraint=eastwest;whiteSpace=wrap;html=1;" vertex="1" parent="7-AQ3YgOqrzpZozeYhBY-1">
          <mxGeometry y="78" width="140" height="82" as="geometry" />
        </mxCell>
        <mxCell id="7-AQ3YgOqrzpZozeYhBY-5" value="Clinician" style="swimlane;fontStyle=0;childLayout=stackLayout;horizontal=1;startSize=26;fillColor=none;horizontalStack=0;resizeParent=1;resizeParentMax=0;resizeLast=0;collapsible=1;marginBottom=0;whiteSpace=wrap;html=1;" vertex="1" parent="1">
          <mxGeometry x="420" y="40" width="140" height="150" as="geometry" />
        </mxCell>
        <mxCell id="7-AQ3YgOqrzpZozeYhBY-6" value="+ id: integer" style="text;strokeColor=none;fillColor=none;align=left;verticalAlign=top;spacingLeft=4;spacingRight=4;overflow=hidden;rotatable=0;points=[[0,0.5],[1,0.5]];portConstraint=eastwest;whiteSpace=wrap;html=1;" vertex="1" parent="7-AQ3YgOqrzpZozeYhBY-5">
          <mxGeometry y="26" width="140" height="26" as="geometry" />
        </mxCell>
        <mxCell id="7-AQ3YgOqrzpZozeYhBY-7" value="+ name: String" style="text;strokeColor=none;fillColor=none;align=left;verticalAlign=top;spacingLeft=4;spacingRight=4;overflow=hidden;rotatable=0;points=[[0,0.5],[1,0.5]];portConstraint=eastwest;whiteSpace=wrap;html=1;" vertex="1" parent="7-AQ3YgOqrzpZozeYhBY-5">
          <mxGeometry y="52" width="140" height="26" as="geometry" />
        </mxCell>
        <mxCell id="7-AQ3YgOqrzpZozeYhBY-8" value="&lt;div&gt;+ surname: String&lt;/div&gt;&lt;div&gt;+ speciality: String&lt;/div&gt;&lt;div&gt;+ phone: integer&lt;/div&gt;&lt;div&gt;+ email:String&lt;/div&gt;&lt;div&gt;&lt;br&gt;&lt;/div&gt;" style="text;strokeColor=none;fillColor=none;align=left;verticalAlign=top;spacingLeft=4;spacingRight=4;overflow=hidden;rotatable=0;points=[[0,0.5],[1,0.5]];portConstraint=eastwest;whiteSpace=wrap;html=1;" vertex="1" parent="7-AQ3YgOqrzpZozeYhBY-5">
          <mxGeometry y="78" width="140" height="72" as="geometry" />
        </mxCell>
        <mxCell id="7-AQ3YgOqrzpZozeYhBY-9" value="" style="endArrow=none;html=1;edgeStyle=orthogonalEdgeStyle;rounded=0;entryX=-0.013;entryY=-0.238;entryDx=0;entryDy=0;entryPerimeter=0;" edge="1" parent="1" target="7-AQ3YgOqrzpZozeYhBY-6">
          <mxGeometry relative="1" as="geometry">
            <mxPoint x="220" y="60" as="sourcePoint" />
            <mxPoint x="380" y="60" as="targetPoint" />
            <Array as="points">
              <mxPoint x="270" y="60" />
              <mxPoint x="270" y="60" />
            </Array>
          </mxGeometry>
        </mxCell>
        <mxCell id="7-AQ3YgOqrzpZozeYhBY-10" value="0...*" style="edgeLabel;resizable=0;html=1;align=left;verticalAlign=bottom;" connectable="0" vertex="1" parent="7-AQ3YgOqrzpZozeYhBY-9">
          <mxGeometry x="-1" relative="1" as="geometry" />
        </mxCell>
        <mxCell id="7-AQ3YgOqrzpZozeYhBY-11" value="0..1" style="edgeLabel;resizable=0;html=1;align=right;verticalAlign=bottom;" connectable="0" vertex="1" parent="7-AQ3YgOqrzpZozeYhBY-9">
          <mxGeometry x="1" relative="1" as="geometry" />
        </mxCell>
        <mxCell id="7-AQ3YgOqrzpZozeYhBY-12" value="has" style="text;html=1;align=center;verticalAlign=middle;whiteSpace=wrap;rounded=0;" vertex="1" parent="1">
          <mxGeometry x="290" y="36" width="60" height="30" as="geometry" />
        </mxCell>
        <mxCell id="7-AQ3YgOqrzpZozeYhBY-17" value="Therapy" style="swimlane;fontStyle=0;childLayout=stackLayout;horizontal=1;startSize=26;fillColor=none;horizontalStack=0;resizeParent=1;resizeParentMax=0;resizeLast=0;collapsible=1;marginBottom=0;whiteSpace=wrap;html=1;" vertex="1" parent="1">
          <mxGeometry x="416" y="289" width="140" height="104" as="geometry" />
        </mxCell>
        <mxCell id="7-AQ3YgOqrzpZozeYhBY-18" value="+ id: integer" style="text;strokeColor=none;fillColor=none;align=left;verticalAlign=top;spacingLeft=4;spacingRight=4;overflow=hidden;rotatable=0;points=[[0,0.5],[1,0.5]];portConstraint=eastwest;whiteSpace=wrap;html=1;" vertex="1" parent="7-AQ3YgOqrzpZozeYhBY-17">
          <mxGeometry y="26" width="140" height="26" as="geometry" />
        </mxCell>
        <mxCell id="7-AQ3YgOqrzpZozeYhBY-19" value="+ description: String" style="text;strokeColor=none;fillColor=none;align=left;verticalAlign=top;spacingLeft=4;spacingRight=4;overflow=hidden;rotatable=0;points=[[0,0.5],[1,0.5]];portConstraint=eastwest;whiteSpace=wrap;html=1;" vertex="1" parent="7-AQ3YgOqrzpZozeYhBY-17">
          <mxGeometry y="52" width="140" height="26" as="geometry" />
        </mxCell>
        <mxCell id="7-AQ3YgOqrzpZozeYhBY-20" value="+ machine: blob" style="text;strokeColor=none;fillColor=none;align=left;verticalAlign=top;spacingLeft=4;spacingRight=4;overflow=hidden;rotatable=0;points=[[0,0.5],[1,0.5]];portConstraint=eastwest;whiteSpace=wrap;html=1;" vertex="1" parent="7-AQ3YgOqrzpZozeYhBY-17">
          <mxGeometry y="78" width="140" height="26" as="geometry" />
        </mxCell>
        <mxCell id="7-AQ3YgOqrzpZozeYhBY-21" value="" style="endArrow=none;html=1;edgeStyle=orthogonalEdgeStyle;rounded=0;entryX=0.489;entryY=1.025;entryDx=0;entryDy=0;entryPerimeter=0;exitX=0.5;exitY=0;exitDx=0;exitDy=0;" edge="1" parent="1">
          <mxGeometry relative="1" as="geometry">
            <mxPoint x="486" y="280" as="sourcePoint" />
            <mxPoint x="488.46000000000004" y="191.79999999999995" as="targetPoint" />
            <Array as="points">
              <mxPoint x="486" y="290" />
              <mxPoint x="490" y="290" />
              <mxPoint x="490" y="250" />
              <mxPoint x="489" y="250" />
            </Array>
          </mxGeometry>
        </mxCell>
        <mxCell id="7-AQ3YgOqrzpZozeYhBY-22" value="0*" style="edgeLabel;resizable=0;html=1;align=left;verticalAlign=bottom;" connectable="0" vertex="1" parent="7-AQ3YgOqrzpZozeYhBY-21">
          <mxGeometry x="-1" relative="1" as="geometry">
            <mxPoint x="7" as="offset" />
          </mxGeometry>
        </mxCell>
        <mxCell id="7-AQ3YgOqrzpZozeYhBY-23" value="0...*" style="edgeLabel;resizable=0;html=1;align=right;verticalAlign=bottom;" connectable="0" vertex="1" parent="7-AQ3YgOqrzpZozeYhBY-21">
          <mxGeometry x="1" relative="1" as="geometry">
            <mxPoint y="19" as="offset" />
          </mxGeometry>
        </mxCell>
        <mxCell id="7-AQ3YgOqrzpZozeYhBY-24" value="" style="endArrow=none;html=1;edgeStyle=orthogonalEdgeStyle;rounded=0;exitX=0.453;exitY=1.002;exitDx=0;exitDy=0;exitPerimeter=0;entryX=0.5;entryY=0;entryDx=0;entryDy=0;" edge="1" parent="1" source="7-AQ3YgOqrzpZozeYhBY-4" target="7-AQ3YgOqrzpZozeYhBY-27">
          <mxGeometry relative="1" as="geometry">
            <mxPoint x="210" y="230" as="sourcePoint" />
            <mxPoint x="370" y="230" as="targetPoint" />
          </mxGeometry>
        </mxCell>
        <mxCell id="7-AQ3YgOqrzpZozeYhBY-25" value="0...1" style="edgeLabel;resizable=0;html=1;align=left;verticalAlign=bottom;" connectable="0" vertex="1" parent="7-AQ3YgOqrzpZozeYhBY-24">
          <mxGeometry x="-1" relative="1" as="geometry">
            <mxPoint y="21" as="offset" />
          </mxGeometry>
        </mxCell>
        <mxCell id="7-AQ3YgOqrzpZozeYhBY-26" value="0..*" style="edgeLabel;resizable=0;html=1;align=right;verticalAlign=bottom;" connectable="0" vertex="1" parent="7-AQ3YgOqrzpZozeYhBY-24">
          <mxGeometry x="1" relative="1" as="geometry">
            <mxPoint x="-2" as="offset" />
          </mxGeometry>
        </mxCell>
        <mxCell id="7-AQ3YgOqrzpZozeYhBY-27" value="Patient_Therapy" style="swimlane;fontStyle=0;childLayout=stackLayout;horizontal=1;startSize=26;fillColor=none;horizontalStack=0;resizeParent=1;resizeParentMax=0;resizeLast=0;collapsible=1;marginBottom=0;whiteSpace=wrap;html=1;" vertex="1" parent="1">
          <mxGeometry x="74" y="290" width="140" height="104" as="geometry" />
        </mxCell>
        <mxCell id="7-AQ3YgOqrzpZozeYhBY-28" value="+ id: integer" style="text;strokeColor=none;fillColor=none;align=left;verticalAlign=top;spacingLeft=4;spacingRight=4;overflow=hidden;rotatable=0;points=[[0,0.5],[1,0.5]];portConstraint=eastwest;whiteSpace=wrap;html=1;" vertex="1" parent="7-AQ3YgOqrzpZozeYhBY-27">
          <mxGeometry y="26" width="140" height="26" as="geometry" />
        </mxCell>
        <mxCell id="7-AQ3YgOqrzpZozeYhBY-29" value="+ comments: String" style="text;strokeColor=none;fillColor=none;align=left;verticalAlign=top;spacingLeft=4;spacingRight=4;overflow=hidden;rotatable=0;points=[[0,0.5],[1,0.5]];portConstraint=eastwest;whiteSpace=wrap;html=1;" vertex="1" parent="7-AQ3YgOqrzpZozeYhBY-27">
          <mxGeometry y="52" width="140" height="26" as="geometry" />
        </mxCell>
        <mxCell id="7-AQ3YgOqrzpZozeYhBY-30" value="+ therapy_date: date" style="text;strokeColor=none;fillColor=none;align=left;verticalAlign=top;spacingLeft=4;spacingRight=4;overflow=hidden;rotatable=0;points=[[0,0.5],[1,0.5]];portConstraint=eastwest;whiteSpace=wrap;html=1;" vertex="1" parent="7-AQ3YgOqrzpZozeYhBY-27">
          <mxGeometry y="78" width="140" height="26" as="geometry" />
        </mxCell>
        <mxCell id="7-AQ3YgOqrzpZozeYhBY-31" value="" style="endArrow=none;html=1;edgeStyle=orthogonalEdgeStyle;rounded=0;" edge="1" parent="1">
          <mxGeometry relative="1" as="geometry">
            <mxPoint x="214" y="320" as="sourcePoint" />
            <mxPoint x="420" y="330" as="targetPoint" />
          </mxGeometry>
        </mxCell>
        <mxCell id="7-AQ3YgOqrzpZozeYhBY-32" value="0...*" style="edgeLabel;resizable=0;html=1;align=left;verticalAlign=bottom;" connectable="0" vertex="1" parent="7-AQ3YgOqrzpZozeYhBY-31">
          <mxGeometry x="-1" relative="1" as="geometry" />
        </mxCell>
        <mxCell id="7-AQ3YgOqrzpZozeYhBY-33" value="0...1" style="edgeLabel;resizable=0;html=1;align=right;verticalAlign=bottom;" connectable="0" vertex="1" parent="7-AQ3YgOqrzpZozeYhBY-31">
          <mxGeometry x="1" relative="1" as="geometry">
            <mxPoint x="-8" y="7" as="offset" />
          </mxGeometry>
        </mxCell>
        <mxCell id="7-AQ3YgOqrzpZozeYhBY-34" value="offers" style="text;html=1;align=center;verticalAlign=middle;whiteSpace=wrap;rounded=0;" vertex="1" parent="1">
          <mxGeometry x="439" y="220" width="60" height="30" as="geometry" />
        </mxCell>
        <mxCell id="7-AQ3YgOqrzpZozeYhBY-35" value="has" style="text;html=1;align=center;verticalAlign=middle;whiteSpace=wrap;rounded=0;" vertex="1" parent="1">
          <mxGeometry x="140" y="240" width="60" height="30" as="geometry" />
        </mxCell>
        <mxCell id="7-AQ3YgOqrzpZozeYhBY-36" value="includes" style="text;html=1;align=center;verticalAlign=middle;whiteSpace=wrap;rounded=0;" vertex="1" parent="1">
          <mxGeometry x="290" y="295" width="60" height="30" as="geometry" />
        </mxCell>
        <mxCell id="7-AQ3YgOqrzpZozeYhBY-41" value="POJOS" style="text;align=center;fontStyle=1;verticalAlign=middle;spacingLeft=3;spacingRight=3;strokeColor=none;rotatable=0;points=[[0,0.5],[1,0.5]];portConstraint=eastwest;html=1;" vertex="1" parent="1">
          <mxGeometry x="20" y="-5" width="80" height="26" as="geometry" />
        </mxCell>
        <mxCell id="7-AQ3YgOqrzpZozeYhBY-42" value="JDBCManager" style="swimlane;fontStyle=0;childLayout=stackLayout;horizontal=1;startSize=26;fillColor=none;horizontalStack=0;resizeParent=1;resizeParentMax=0;resizeLast=0;collapsible=1;marginBottom=0;whiteSpace=wrap;html=1;" vertex="1" parent="1">
          <mxGeometry x="490" y="-440" width="250" height="138" as="geometry" />
        </mxCell>
        <mxCell id="7-AQ3YgOqrzpZozeYhBY-43" value="+ c: Connection" style="text;strokeColor=none;fillColor=none;align=left;verticalAlign=top;spacingLeft=4;spacingRight=4;overflow=hidden;rotatable=0;points=[[0,0.5],[1,0.5]];portConstraint=eastwest;whiteSpace=wrap;html=1;" vertex="1" parent="7-AQ3YgOqrzpZozeYhBY-42">
          <mxGeometry y="26" width="250" height="26" as="geometry" />
        </mxCell>
        <mxCell id="7-AQ3YgOqrzpZozeYhBY-46" value="" style="line;strokeWidth=1;fillColor=none;align=left;verticalAlign=middle;spacingTop=-1;spacingLeft=3;spacingRight=3;rotatable=0;labelPosition=right;points=[];portConstraint=eastwest;strokeColor=inherit;" vertex="1" parent="7-AQ3YgOqrzpZozeYhBY-42">
          <mxGeometry y="52" width="250" height="8" as="geometry" />
        </mxCell>
        <mxCell id="7-AQ3YgOqrzpZozeYhBY-44" value="+ getConnection(): Connection" style="text;strokeColor=none;fillColor=none;align=left;verticalAlign=top;spacingLeft=4;spacingRight=4;overflow=hidden;rotatable=0;points=[[0,0.5],[1,0.5]];portConstraint=eastwest;whiteSpace=wrap;html=1;" vertex="1" parent="7-AQ3YgOqrzpZozeYhBY-42">
          <mxGeometry y="60" width="250" height="26" as="geometry" />
        </mxCell>
        <mxCell id="7-AQ3YgOqrzpZozeYhBY-47" value="+ disconnect(): void" style="text;strokeColor=none;fillColor=none;align=left;verticalAlign=top;spacingLeft=4;spacingRight=4;overflow=hidden;rotatable=0;points=[[0,0.5],[1,0.5]];portConstraint=eastwest;whiteSpace=wrap;html=1;" vertex="1" parent="7-AQ3YgOqrzpZozeYhBY-42">
          <mxGeometry y="86" width="250" height="26" as="geometry" />
        </mxCell>
        <mxCell id="7-AQ3YgOqrzpZozeYhBY-45" value="- createTables(): void" style="text;strokeColor=none;fillColor=none;align=left;verticalAlign=top;spacingLeft=4;spacingRight=4;overflow=hidden;rotatable=0;points=[[0,0.5],[1,0.5]];portConstraint=eastwest;whiteSpace=wrap;html=1;" vertex="1" parent="7-AQ3YgOqrzpZozeYhBY-42">
          <mxGeometry y="112" width="250" height="26" as="geometry" />
        </mxCell>
        <mxCell id="7-AQ3YgOqrzpZozeYhBY-48" value="JDBCPatientManager" style="swimlane;fontStyle=1;align=center;verticalAlign=top;childLayout=stackLayout;horizontal=1;startSize=26;horizontalStack=0;resizeParent=1;resizeParentMax=0;resizeLast=0;collapsible=1;marginBottom=0;whiteSpace=wrap;html=1;" vertex="1" parent="1">
          <mxGeometry x="100" y="-500" width="270" height="60" as="geometry" />
        </mxCell>
        <mxCell id="7-AQ3YgOqrzpZozeYhBY-50" value="" style="line;strokeWidth=1;fillColor=none;align=left;verticalAlign=middle;spacingTop=-1;spacingLeft=3;spacingRight=3;rotatable=0;labelPosition=right;points=[];portConstraint=eastwest;strokeColor=inherit;" vertex="1" parent="7-AQ3YgOqrzpZozeYhBY-48">
          <mxGeometry y="26" width="270" height="8" as="geometry" />
        </mxCell>
        <mxCell id="7-AQ3YgOqrzpZozeYhBY-51" value="+ JDBCPatientManager(m: JDBCMnager)" style="text;strokeColor=none;fillColor=none;align=left;verticalAlign=top;spacingLeft=4;spacingRight=4;overflow=hidden;rotatable=0;points=[[0,0.5],[1,0.5]];portConstraint=eastwest;whiteSpace=wrap;html=1;" vertex="1" parent="7-AQ3YgOqrzpZozeYhBY-48">
          <mxGeometry y="34" width="270" height="26" as="geometry" />
        </mxCell>
        <mxCell id="7-AQ3YgOqrzpZozeYhBY-52" value="JDBCClinicianManager" style="swimlane;fontStyle=1;align=center;verticalAlign=top;childLayout=stackLayout;horizontal=1;startSize=26;horizontalStack=0;resizeParent=1;resizeParentMax=0;resizeLast=0;collapsible=1;marginBottom=0;whiteSpace=wrap;html=1;" vertex="1" parent="1">
          <mxGeometry x="100" y="-401" width="270" height="60" as="geometry" />
        </mxCell>
        <mxCell id="7-AQ3YgOqrzpZozeYhBY-53" value="" style="line;strokeWidth=1;fillColor=none;align=left;verticalAlign=middle;spacingTop=-1;spacingLeft=3;spacingRight=3;rotatable=0;labelPosition=right;points=[];portConstraint=eastwest;strokeColor=inherit;" vertex="1" parent="7-AQ3YgOqrzpZozeYhBY-52">
          <mxGeometry y="26" width="270" height="8" as="geometry" />
        </mxCell>
        <mxCell id="7-AQ3YgOqrzpZozeYhBY-54" value="+ JDBCPatientManager(m: JDBCMnager)" style="text;strokeColor=none;fillColor=none;align=left;verticalAlign=top;spacingLeft=4;spacingRight=4;overflow=hidden;rotatable=0;points=[[0,0.5],[1,0.5]];portConstraint=eastwest;whiteSpace=wrap;html=1;" vertex="1" parent="7-AQ3YgOqrzpZozeYhBY-52">
          <mxGeometry y="34" width="270" height="26" as="geometry" />
        </mxCell>
        <mxCell id="7-AQ3YgOqrzpZozeYhBY-66" style="edgeStyle=orthogonalEdgeStyle;rounded=0;orthogonalLoop=1;jettySize=auto;html=1;exitX=1;exitY=0.25;exitDx=0;exitDy=0;entryX=0;entryY=0.5;entryDx=0;entryDy=0;endArrow=none;startFill=0;" edge="1" parent="1" source="7-AQ3YgOqrzpZozeYhBY-55" target="7-AQ3YgOqrzpZozeYhBY-47">
          <mxGeometry relative="1" as="geometry" />
        </mxCell>
        <mxCell id="7-AQ3YgOqrzpZozeYhBY-55" value="JDBCTherapyManager" style="swimlane;fontStyle=1;align=center;verticalAlign=top;childLayout=stackLayout;horizontal=1;startSize=26;horizontalStack=0;resizeParent=1;resizeParentMax=0;resizeLast=0;collapsible=1;marginBottom=0;whiteSpace=wrap;html=1;" vertex="1" parent="1">
          <mxGeometry x="100" y="-300" width="270" height="60" as="geometry" />
        </mxCell>
        <mxCell id="7-AQ3YgOqrzpZozeYhBY-56" value="" style="line;strokeWidth=1;fillColor=none;align=left;verticalAlign=middle;spacingTop=-1;spacingLeft=3;spacingRight=3;rotatable=0;labelPosition=right;points=[];portConstraint=eastwest;strokeColor=inherit;" vertex="1" parent="7-AQ3YgOqrzpZozeYhBY-55">
          <mxGeometry y="26" width="270" height="8" as="geometry" />
        </mxCell>
        <mxCell id="7-AQ3YgOqrzpZozeYhBY-57" value="+ JDBCPatientManager(m: JDBCMnager)" style="text;strokeColor=none;fillColor=none;align=left;verticalAlign=top;spacingLeft=4;spacingRight=4;overflow=hidden;rotatable=0;points=[[0,0.5],[1,0.5]];portConstraint=eastwest;whiteSpace=wrap;html=1;" vertex="1" parent="7-AQ3YgOqrzpZozeYhBY-55">
          <mxGeometry y="34" width="270" height="26" as="geometry" />
        </mxCell>
        <mxCell id="7-AQ3YgOqrzpZozeYhBY-67" style="edgeStyle=orthogonalEdgeStyle;rounded=0;orthogonalLoop=1;jettySize=auto;html=1;entryX=0;entryY=0.5;entryDx=0;entryDy=0;endArrow=none;startFill=0;" edge="1" parent="1">
          <mxGeometry relative="1" as="geometry">
            <mxPoint x="370" y="-195" as="sourcePoint" />
            <mxPoint x="489.9999999999998" y="-315.0000000000002" as="targetPoint" />
            <Array as="points">
              <mxPoint x="460" y="-195" />
              <mxPoint x="460" y="-315" />
            </Array>
          </mxGeometry>
        </mxCell>
        <mxCell id="7-AQ3YgOqrzpZozeYhBY-61" value="JDBCPatientTherapyManager" style="swimlane;fontStyle=1;align=center;verticalAlign=top;childLayout=stackLayout;horizontal=1;startSize=26;horizontalStack=0;resizeParent=1;resizeParentMax=0;resizeLast=0;collapsible=1;marginBottom=0;whiteSpace=wrap;html=1;" vertex="1" parent="1">
          <mxGeometry x="100" y="-210" width="270" height="60" as="geometry" />
        </mxCell>
        <mxCell id="7-AQ3YgOqrzpZozeYhBY-62" value="" style="line;strokeWidth=1;fillColor=none;align=left;verticalAlign=middle;spacingTop=-1;spacingLeft=3;spacingRight=3;rotatable=0;labelPosition=right;points=[];portConstraint=eastwest;strokeColor=inherit;" vertex="1" parent="7-AQ3YgOqrzpZozeYhBY-61">
          <mxGeometry y="26" width="270" height="8" as="geometry" />
        </mxCell>
        <mxCell id="7-AQ3YgOqrzpZozeYhBY-63" value="+ JDBCPatientManager(m: JDBCMnager)" style="text;strokeColor=none;fillColor=none;align=left;verticalAlign=top;spacingLeft=4;spacingRight=4;overflow=hidden;rotatable=0;points=[[0,0.5],[1,0.5]];portConstraint=eastwest;whiteSpace=wrap;html=1;" vertex="1" parent="7-AQ3YgOqrzpZozeYhBY-61">
          <mxGeometry y="34" width="270" height="26" as="geometry" />
        </mxCell>
        <mxCell id="7-AQ3YgOqrzpZozeYhBY-64" value="" style="endArrow=none;html=1;rounded=0;entryX=0;entryY=0.5;entryDx=0;entryDy=0;exitX=1;exitY=0.25;exitDx=0;exitDy=0;" edge="1" parent="1" source="7-AQ3YgOqrzpZozeYhBY-48" target="7-AQ3YgOqrzpZozeYhBY-43">
          <mxGeometry width="50" height="50" relative="1" as="geometry">
            <mxPoint x="330" y="-320" as="sourcePoint" />
            <mxPoint x="380" y="-370" as="targetPoint" />
            <Array as="points">
              <mxPoint x="430" y="-485" />
              <mxPoint x="430" y="-401" />
            </Array>
          </mxGeometry>
        </mxCell>
        <mxCell id="7-AQ3YgOqrzpZozeYhBY-65" style="edgeStyle=orthogonalEdgeStyle;rounded=0;orthogonalLoop=1;jettySize=auto;html=1;exitX=1;exitY=0.25;exitDx=0;exitDy=0;entryX=0.009;entryY=-0.265;entryDx=0;entryDy=0;entryPerimeter=0;endArrow=none;startFill=0;" edge="1" parent="1" source="7-AQ3YgOqrzpZozeYhBY-52" target="7-AQ3YgOqrzpZozeYhBY-44">
          <mxGeometry relative="1" as="geometry" />
        </mxCell>
        <mxCell id="7-AQ3YgOqrzpZozeYhBY-69" value="JDBC" style="text;align=center;fontStyle=1;verticalAlign=middle;spacingLeft=3;spacingRight=3;strokeColor=none;rotatable=0;points=[[0,0.5],[1,0.5]];portConstraint=eastwest;html=1;" vertex="1" parent="1">
          <mxGeometry x="40" y="-545" width="80" height="26" as="geometry" />
        </mxCell>
        <mxCell id="7-AQ3YgOqrzpZozeYhBY-70" value="&lt;p style=&quot;margin:0px;margin-top:4px;text-align:center;&quot;&gt;&lt;i&gt;&amp;lt;&amp;lt;Interface&amp;gt;&amp;gt;&lt;/i&gt;&lt;br&gt;&lt;b&gt;PatientManager&lt;/b&gt;&lt;/p&gt;&lt;hr size=&quot;1&quot; style=&quot;border-style:solid;&quot;&gt;&lt;p style=&quot;margin:0px;margin-left:4px;&quot;&gt;+ addPatient(p: Patient): void&lt;br&gt;+ getPatient(string: email): Patient&lt;/p&gt;" style="verticalAlign=top;align=left;overflow=fill;html=1;whiteSpace=wrap;" vertex="1" parent="1">
          <mxGeometry x="-470" y="-530" width="190" height="90" as="geometry" />
        </mxCell>
        <mxCell id="7-AQ3YgOqrzpZozeYhBY-77" style="edgeStyle=orthogonalEdgeStyle;rounded=0;orthogonalLoop=1;jettySize=auto;html=1;exitX=1;exitY=0.25;exitDx=0;exitDy=0;entryX=0;entryY=0.25;entryDx=0;entryDy=0;endArrow=none;startFill=0;" edge="1" parent="1" source="7-AQ3YgOqrzpZozeYhBY-71" target="7-AQ3YgOqrzpZozeYhBY-52">
          <mxGeometry relative="1" as="geometry" />
        </mxCell>
        <mxCell id="7-AQ3YgOqrzpZozeYhBY-71" value="&lt;p style=&quot;margin:0px;margin-top:4px;text-align:center;&quot;&gt;&lt;i&gt;&amp;lt;&amp;lt;Interface&amp;gt;&amp;gt;&lt;/i&gt;&lt;br&gt;&lt;b&gt;ClinicianManager&lt;/b&gt;&lt;/p&gt;&lt;hr size=&quot;1&quot; style=&quot;border-style:solid;&quot;&gt;&lt;p style=&quot;margin:0px;margin-left:4px;&quot;&gt;+ addClinician(doctor: Clinician): void&lt;br&gt;+ getTherapies(): List &amp;lt;Therapy&amp;gt;&lt;/p&gt;" style="verticalAlign=top;align=left;overflow=fill;html=1;whiteSpace=wrap;" vertex="1" parent="1">
          <mxGeometry x="-470" y="-401" width="240" height="90" as="geometry" />
        </mxCell>
        <mxCell id="7-AQ3YgOqrzpZozeYhBY-78" style="edgeStyle=orthogonalEdgeStyle;rounded=0;orthogonalLoop=1;jettySize=auto;html=1;exitX=1;exitY=0.25;exitDx=0;exitDy=0;entryX=0;entryY=0.25;entryDx=0;entryDy=0;endArrow=none;startFill=0;" edge="1" parent="1" source="7-AQ3YgOqrzpZozeYhBY-72" target="7-AQ3YgOqrzpZozeYhBY-55">
          <mxGeometry relative="1" as="geometry" />
        </mxCell>
        <mxCell id="7-AQ3YgOqrzpZozeYhBY-72" value="&lt;p style=&quot;margin:0px;margin-top:4px;text-align:center;&quot;&gt;&lt;i&gt;&amp;lt;&amp;lt;Interface&amp;gt;&amp;gt;&lt;/i&gt;&lt;br&gt;&lt;b&gt;TherapyManager&lt;/b&gt;&lt;/p&gt;&lt;hr size=&quot;1&quot; style=&quot;border-style:solid;&quot;&gt;&lt;p style=&quot;margin:0px;margin-left:4px;&quot;&gt;+ addTherapy(t: Therapy): void&lt;br&gt;+ getTherapy(id: integer): Therapy&lt;/p&gt;" style="verticalAlign=top;align=left;overflow=fill;html=1;whiteSpace=wrap;" vertex="1" parent="1">
          <mxGeometry x="-470" y="-270" width="240" height="90" as="geometry" />
        </mxCell>
        <mxCell id="7-AQ3YgOqrzpZozeYhBY-79" style="edgeStyle=orthogonalEdgeStyle;rounded=0;orthogonalLoop=1;jettySize=auto;html=1;exitX=1;exitY=0.25;exitDx=0;exitDy=0;entryX=0;entryY=0.25;entryDx=0;entryDy=0;endArrow=none;startFill=0;" edge="1" parent="1" source="7-AQ3YgOqrzpZozeYhBY-73" target="7-AQ3YgOqrzpZozeYhBY-61">
          <mxGeometry relative="1" as="geometry" />
        </mxCell>
        <mxCell id="7-AQ3YgOqrzpZozeYhBY-73" value="&lt;p style=&quot;margin:0px;margin-top:4px;text-align:center;&quot;&gt;&lt;i&gt;&amp;lt;&amp;lt;Interface&amp;gt;&amp;gt;&lt;/i&gt;&lt;br&gt;&lt;b&gt;PatientTherapyManager&lt;/b&gt;&lt;/p&gt;&lt;hr size=&quot;1&quot; style=&quot;border-style:solid;&quot;&gt;&lt;p style=&quot;margin:0px;margin-left:4px;&quot;&gt;+ addPatientTherapy(pt: Patient_Therapy): void&lt;br&gt;+ getPatientsTherapy(id: integer): List &amp;lt;Patient_Therapy&amp;gt;&lt;/p&gt;" style="verticalAlign=top;align=left;overflow=fill;html=1;whiteSpace=wrap;" vertex="1" parent="1">
          <mxGeometry x="-470" y="-150" width="340" height="90" as="geometry" />
        </mxCell>
        <mxCell id="7-AQ3YgOqrzpZozeYhBY-75" value="iFaces" style="text;align=center;fontStyle=1;verticalAlign=middle;spacingLeft=3;spacingRight=3;strokeColor=none;rotatable=0;points=[[0,0.5],[1,0.5]];portConstraint=eastwest;html=1;" vertex="1" parent="1">
          <mxGeometry x="-560" y="-584" width="80" height="26" as="geometry" />
        </mxCell>
        <mxCell id="7-AQ3YgOqrzpZozeYhBY-76" value="" style="endArrow=none;html=1;rounded=0;exitX=1;exitY=0.25;exitDx=0;exitDy=0;entryX=0;entryY=0.25;entryDx=0;entryDy=0;" edge="1" parent="1" source="7-AQ3YgOqrzpZozeYhBY-70" target="7-AQ3YgOqrzpZozeYhBY-48">
          <mxGeometry width="50" height="50" relative="1" as="geometry">
            <mxPoint x="-170" y="-370" as="sourcePoint" />
            <mxPoint x="-120" y="-420" as="targetPoint" />
            <Array as="points">
              <mxPoint x="-220" y="-507" />
              <mxPoint x="-220" y="-485" />
            </Array>
          </mxGeometry>
        </mxCell>
        <mxCell id="7-AQ3YgOqrzpZozeYhBY-80" value="menu" style="swimlane;fontStyle=0;childLayout=stackLayout;horizontal=1;startSize=26;fillColor=none;horizontalStack=0;resizeParent=1;resizeParentMax=0;resizeLast=0;collapsible=1;marginBottom=0;whiteSpace=wrap;html=1;" vertex="1" parent="1">
          <mxGeometry x="-370" y="122" width="140" height="86" as="geometry" />
        </mxCell>
        <mxCell id="7-AQ3YgOqrzpZozeYhBY-81" value="+ field: type" style="text;strokeColor=none;fillColor=none;align=left;verticalAlign=top;spacingLeft=4;spacingRight=4;overflow=hidden;rotatable=0;points=[[0,0.5],[1,0.5]];portConstraint=eastwest;whiteSpace=wrap;html=1;" vertex="1" parent="7-AQ3YgOqrzpZozeYhBY-80">
          <mxGeometry y="26" width="140" height="26" as="geometry" />
        </mxCell>
        <mxCell id="7-AQ3YgOqrzpZozeYhBY-85" value="" style="line;strokeWidth=1;fillColor=none;align=left;verticalAlign=middle;spacingTop=-1;spacingLeft=3;spacingRight=3;rotatable=0;labelPosition=right;points=[];portConstraint=eastwest;strokeColor=inherit;" vertex="1" parent="7-AQ3YgOqrzpZozeYhBY-80">
          <mxGeometry y="52" width="140" height="8" as="geometry" />
        </mxCell>
        <mxCell id="7-AQ3YgOqrzpZozeYhBY-82" value="+ main(): void" style="text;strokeColor=none;fillColor=none;align=left;verticalAlign=top;spacingLeft=4;spacingRight=4;overflow=hidden;rotatable=0;points=[[0,0.5],[1,0.5]];portConstraint=eastwest;whiteSpace=wrap;html=1;" vertex="1" parent="7-AQ3YgOqrzpZozeYhBY-80">
          <mxGeometry y="60" width="140" height="26" as="geometry" />
        </mxCell>
        <mxCell id="7-AQ3YgOqrzpZozeYhBY-86" value="" style="endArrow=none;html=1;rounded=0;entryX=0.5;entryY=1;entryDx=0;entryDy=0;entryPerimeter=0;exitX=0.489;exitY=0.075;exitDx=0;exitDy=0;exitPerimeter=0;" edge="1" parent="1" source="7-AQ3YgOqrzpZozeYhBY-88" target="7-AQ3YgOqrzpZozeYhBY-74">
          <mxGeometry width="50" height="50" relative="1" as="geometry">
            <mxPoint x="-170" y="130" as="sourcePoint" />
            <mxPoint x="-120" y="80" as="targetPoint" />
          </mxGeometry>
        </mxCell>
        <mxCell id="7-AQ3YgOqrzpZozeYhBY-87" value="" style="endArrow=none;html=1;rounded=0;entryX=-0.004;entryY=0.314;entryDx=0;entryDy=0;entryPerimeter=0;" edge="1" parent="1" target="7-AQ3YgOqrzpZozeYhBY-40">
          <mxGeometry width="50" height="50" relative="1" as="geometry">
            <mxPoint x="-160" y="135" as="sourcePoint" />
            <mxPoint x="-120" y="80" as="targetPoint" />
          </mxGeometry>
        </mxCell>
        <mxCell id="7-AQ3YgOqrzpZozeYhBY-89" value="UI" style="text;align=center;fontStyle=1;verticalAlign=middle;spacingLeft=3;spacingRight=3;strokeColor=none;rotatable=0;points=[[0,0.5],[1,0.5]];portConstraint=eastwest;html=1;" vertex="1" parent="1">
          <mxGeometry x="-453" y="75" width="80" height="26" as="geometry" />
        </mxCell>
      </root>
    </mxGraphModel>
  </diagram>
</mxfile>
